<svg xmlns="http://www.w3.org/2000/svg" width="46" height="44" viewBox="0 0 46 44"><defs><style>.a{fill:#e86c60;}.b{fill:#efd358;}.c{fill:#72c472;}.d{fill:#42a6dd;}.e{fill:#e0e0e0;}</style></defs><g transform="translate(-1 -1)"><path class="a" d="M42,5V1A23,23,0,0,0,19,24c0,.335.011.668.025,1H23.05c-.017-.333-.05-.662-.05-1A19,19,0,0,1,42,5Z"/><path class="b" d="M42,9V5A19,19,0,0,0,23,24c0,.338.033.667.05,1h4c-.022-.332-.05-.662-.05-1A15,15,0,0,1,42,9Z"/><path class="c" d="M42,13V9A15,15,0,0,0,27,24c0,.338.029.668.05,1h4c-.03-.33-.05-.662-.05-1A11,11,0,0,1,42,13Z"/><path class="d" d="M42,13A11,11,0,0,0,31,24c0,.338.021.67.05,1H35.08A6.951,6.951,0,0,1,42,17Z"/><path class="e" d="M36,45H16A15,15,0,1,1,30.055,24.793,10.883,10.883,0,0,1,36,23a11,11,0,0,1,0,22Z"/></g></svg>