<svg xmlns="http://www.w3.org/2000/svg" width="46" height="47" viewBox="0 0 46 47"><g transform="translate(-954 -796)"><g transform="translate(953 796)"><circle cx="5" cy="5" r="5" transform="translate(4 5)" fill="#f9d21b"/><circle cx="7" cy="7" r="7" transform="translate(17 1)" fill="#f9d21b"/><path d="M13.272,35.911A3,3,0,0,1,11,33V22a6.975,6.975,0,0,1,2.008-4.9A5,5,0,0,0,12,17H6a5.006,5.006,0,0,0-5,5v9a1,1,0,0,0,.684.949l2.38.793L5,43.091A1,1,0,0,0,6,44h6a1,1,0,0,0,1-.91L13.64,36Z" fill="#f9d21b"/><circle cx="5" cy="5" r="5" transform="translate(34 5)" fill="#f9d21b"/><path d="M34.728,35.911A3,3,0,0,0,37,33V22a6.975,6.975,0,0,0-2.008-4.9A5,5,0,0,1,36,17h6a5.006,5.006,0,0,1,5,5v9a1,1,0,0,1-.684.949l-2.38.793L43,43.091A1,1,0,0,1,42,44H36a1,1,0,0,1-1-.91L34.36,36Z" fill="#f9d21b"/><path d="M30,17H18a5.006,5.006,0,0,0-5,5V33a1,1,0,0,0,.757.97l3.306.826L18,46.083A1,1,0,0,0,19,47H29a1,1,0,0,0,1-.917l.94-11.287,3.306-.826A1,1,0,0,0,35,33V22A5.006,5.006,0,0,0,30,17Z" fill="#f9d21b"/></g><g transform="translate(953 795)"><path d="M9,13H9A4,4,0,0,1,5,9H5A4,4,0,0,1,9,5H9a4,4,0,0,1,4,4h0A4,4,0,0,1,9,13Z" fill="none" stroke="#fbaf2a" stroke-linecap="square" stroke-miterlimit="10" stroke-width="2"/><path d="M12,43H6L5,32,2,31V22a4,4,0,0,1,4-4h6a4,4,0,0,1,3.427,1.937" fill="none" stroke="#fbaf2a" stroke-miterlimit="10" stroke-width="2"/><path d="M39,13h0a4,4,0,0,0,4-4h0a4,4,0,0,0-4-4h0a4,4,0,0,0-4,4h0A4,4,0,0,0,39,13Z" fill="none" stroke="#fbaf2a" stroke-linecap="square" stroke-miterlimit="10" stroke-width="2"/><path d="M36,43h6l1-11,3-1V22a4,4,0,0,0-4-4H36a4,4,0,0,0-3.427,1.937" fill="none" stroke="#fbaf2a" stroke-miterlimit="10" stroke-width="2"/><path d="M24,14h0a6,6,0,0,1-6-6h0a6,6,0,0,1,6-6h0a6,6,0,0,1,6,6h0A6,6,0,0,1,24,14Z" fill="none" stroke="#fbaf2a" stroke-linecap="square" stroke-miterlimit="10" stroke-width="2"/><path d="M29,46H19L18,34l-4-1V23a4,4,0,0,1,4-4H30a4,4,0,0,1,4,4V33l-4,1Z" fill="none" stroke="#fbaf2a" stroke-linecap="square" stroke-miterlimit="10" stroke-width="2"/></g></g></svg>