<svg xmlns="http://www.w3.org/2000/svg" width="43.414" height="43.418" viewBox="0 0 43.414 43.418"><g transform="translate(-509 -809.586)"><g transform="translate(508 808.004)"><path d="M42.7,43.3l-40-40a.913.913,0,0,0-1.1-.2A.875.875,0,0,0,1,4V14H4a1,1,0,0,1,0,2H1v6H4a1,1,0,0,1,0,2H1v6H4a1,1,0,0,1,0,2H1v6H4a1,1,0,0,1,0,2H1v4a.945.945,0,0,0,1,1H42a.875.875,0,0,0,.9-.6A.913.913,0,0,0,42.7,43.3ZM22.9,36.4a.875.875,0,0,1-.9.6H12a.945.945,0,0,1-1-1V26a.875.875,0,0,1,.6-.9.913.913,0,0,1,1.1.2l10,10A.913.913,0,0,1,22.9,36.4Z" fill="#f9d21b"/></g><g transform="translate(508 808)"><line x2="4" transform="translate(2 20)" fill="none" stroke="#fbaf2a" stroke-linecap="square" stroke-miterlimit="10" stroke-width="2"/><line x2="4" transform="translate(2 28)" fill="none" stroke="#fbaf2a" stroke-linecap="square" stroke-miterlimit="10" stroke-width="2"/><line x2="4" transform="translate(2 36)" fill="none" stroke="#fbaf2a" stroke-linecap="square" stroke-miterlimit="10" stroke-width="2"/><path d="M12,26V36H22Z" fill="none" stroke="#fbaf2a" stroke-linecap="square" stroke-miterlimit="10" stroke-width="2"/><path d="M2,4V44H42Z" fill="none" stroke="#fbaf2a" stroke-linecap="square" stroke-miterlimit="10" stroke-width="2"/></g></g></svg>