<svg xmlns="http://www.w3.org/2000/svg" width="49.283" height="49.393" viewBox="0 0 49.283 49.393"><g transform="translate(-124.822 -821.586)"><g transform="translate(123.992 823.985)"><path d="M10.947,37.053a15.039,15.039,0,0,1-3.085-4.329L1.656,38.93C.39,40.2,1.027,42.745,3.141,44.859a6.447,6.447,0,0,0,4.225,2.133,2.337,2.337,0,0,0,1.7-.648l6.209-6.209a15.037,15.037,0,0,1-4.328-3.082Z" fill="#f9d21b"/><path d="M23.188,24.812a18.916,18.916,0,0,1-4.528-6.886L9.887,26.7c-1.843,1.843-.78,5.686,2.474,8.94,2.179,2.178,4.621,3.375,6.551,3.375a3.268,3.268,0,0,0,2.389-.9l8.781-8.781a18.837,18.837,0,0,1-6.894-4.522Z" fill="#f9d21b"/><path d="M42.4,5.6C38.076,1.278,32.827-.243,30.449,2.137l-9.312,9.312c-2.379,2.379-.858,7.628,3.465,11.949,2.941,2.943,6.312,4.586,8.916,4.586a4.152,4.152,0,0,0,3.033-1.121l9.312-9.312C48.242,15.172,46.721,9.923,42.4,5.6Zm2.051,10.535c-1.337,1.337-5.412.244-9.122-3.464s-4.8-7.784-3.464-9.122A2.263,2.263,0,0,1,33.5,3c1.891,0,4.783,1.314,7.482,4.013,3.71,3.712,4.805,7.787,3.467,9.124Z" fill="#f9d21b"/></g><g transform="translate(123.999 823.691)"><path d="M15.573,38.427l-7.21,7.21c-.837.837-2.858.172-4.515-1.485s-2.322-3.678-1.485-4.515l7.212-7.212" fill="none" stroke="#fbaf2a" stroke-miterlimit="10" stroke-width="2"/><ellipse cx="5" cy="9.899" rx="5" ry="9.899" transform="translate(27.621 6.38) rotate(-45)" fill="none" stroke="#fbaf2a" stroke-miterlimit="10" stroke-width="2"/><path d="M19.37,18.63,9.594,28.406C8.2,29.8,9.307,33.17,12.068,35.932S18.2,39.8,19.594,38.406l9.778-9.778" fill="none" stroke="#fbaf2a" stroke-miterlimit="10" stroke-width="2"/><path d="M31.156,2.844,19.844,14.156c-1.953,1.953-.4,6.67,3.464,10.536s8.583,5.417,10.536,3.464L45.156,16.844" fill="none" stroke="#fbaf2a" stroke-miterlimit="10" stroke-width="2"/></g></g></svg>